<mxfile host="app.diagrams.net" modified="2023-12-14T09:18:49.918Z" agent="Mozilla/5.0 (Windows NT 10.0; Win64; x64) AppleWebKit/537.36 (KHTML, like Gecko) Chrome/119.0.0.0 Safari/537.36 Edg/119.0.0.0" etag="77XIV2zVp0eu8BJTfI1s" version="22.1.7" type="github">
  <diagram name="Page-1" id="c4acf3e9-155e-7222-9cf6-157b1a14988f">
    <mxGraphModel dx="6640" dy="3868" grid="0" gridSize="10" guides="1" tooltips="1" connect="1" arrows="1" fold="1" page="0" pageScale="1" pageWidth="1169" pageHeight="827" background="none" math="0" shadow="0">
      <root>
        <mxCell id="0" />
        <mxCell id="1" parent="0" />
        <mxCell id="0FXop1k1lJmk01pZkUKz-18" value="&lt;p style=&quot;border-color: var(--border-color); text-decoration-line: underline; margin: 4px 0px 0px; text-align: center;&quot;&gt;&lt;b style=&quot;border-color: var(--border-color);&quot;&gt;Urban Water Infiltration&lt;/b&gt;&lt;/p&gt;&lt;hr style=&quot;border-color: var(--border-color);&quot;&gt;&lt;p style=&quot;border-color: var(--border-color); margin: 0px 0px 0px 8px;&quot;&gt;name = waterInfiltration&lt;br style=&quot;border-color: var(--border-color);&quot;&gt;&lt;/p&gt;&lt;p style=&quot;border-color: var(--border-color); margin: 0px 0px 0px 8px;&quot;&gt;scaleNeighborhood = 1&lt;/p&gt;&lt;p style=&quot;border-color: var(--border-color); margin: 0px 0px 0px 8px;&quot;&gt;scaleCity = 1&lt;/p&gt;&lt;p style=&quot;border-color: var(--border-color); margin: 0px 0px 0px 8px;&quot;&gt;scaleRegion = 0&lt;/p&gt;&lt;p style=&quot;border-color: var(--border-color); margin: 0px 0px 0px 8px;&quot;&gt;adaptation = waterlogging&lt;/p&gt;&lt;p style=&quot;border-color: var(--border-color); margin: 0px 0px 0px 8px;&quot;&gt;source = klimaateffectatlas&lt;br&gt;&lt;/p&gt;" style="verticalAlign=top;align=left;overflow=fill;fontSize=12;fontFamily=Helvetica;html=1;whiteSpace=wrap;" parent="1" vertex="1">
          <mxGeometry x="-293" y="-814" width="160" height="127" as="geometry" />
        </mxCell>
        <mxCell id="0FXop1k1lJmk01pZkUKz-20" value="&lt;p style=&quot;margin:0px;margin-top:4px;text-align:center;&quot;&gt;&lt;b&gt;Design Intervention&lt;/b&gt;&lt;/p&gt;&lt;hr size=&quot;1&quot;&gt;&lt;p style=&quot;margin:0px;margin-left:4px;&quot;&gt;+ name: str&lt;/p&gt;&lt;hr size=&quot;1&quot;&gt;&lt;p style=&quot;margin:0px;margin-left:4px;&quot;&gt;+ scaleNeighborhood: 0..1&lt;/p&gt;&lt;p style=&quot;margin:0px;margin-left:4px;&quot;&gt;+ scaleCity: 0..1&lt;/p&gt;&lt;p style=&quot;margin:0px;margin-left:4px;&quot;&gt;+ scaleRegion: 0..1&lt;/p&gt;&lt;p style=&quot;margin:0px;margin-left:4px;&quot;&gt;+ adaptation: str&lt;/p&gt;&lt;p style=&quot;margin:0px;margin-left:4px;&quot;&gt;+ source: str&lt;/p&gt;" style="verticalAlign=top;align=left;overflow=fill;fontSize=12;fontFamily=Helvetica;html=1;whiteSpace=wrap;fillColor=#f5f5f5;strokeColor=#666666;fontColor=#333333;" parent="1" vertex="1">
          <mxGeometry x="-416" y="-1027" width="160" height="136" as="geometry" />
        </mxCell>
        <mxCell id="0FXop1k1lJmk01pZkUKz-21" value="&lt;p style=&quot;margin:0px;margin-top:4px;text-align:center;&quot;&gt;&lt;b&gt;Subsurface Properties&lt;/b&gt;&lt;/p&gt;&lt;hr size=&quot;1&quot;&gt;&lt;p style=&quot;margin:0px;margin-left:4px;&quot;&gt;+ name: str&lt;/p&gt;" style="verticalAlign=top;align=left;overflow=fill;fontSize=12;fontFamily=Helvetica;html=1;whiteSpace=wrap;fillColor=#f5f5f5;strokeColor=#666666;fontColor=#333333;" parent="1" vertex="1">
          <mxGeometry x="555" y="-951" width="160" height="61" as="geometry" />
        </mxCell>
        <mxCell id="0FXop1k1lJmk01pZkUKz-29" value="&lt;p style=&quot;margin:0px;margin-top:4px;text-align:center;&quot;&gt;&lt;b&gt;Soil Type&lt;/b&gt;&lt;/p&gt;&lt;hr size=&quot;1&quot;&gt;&lt;p style=&quot;margin:0px;margin-left:4px;&quot;&gt;+ soiltype: str&lt;/p&gt;" style="verticalAlign=top;align=left;overflow=fill;fontSize=12;fontFamily=Helvetica;html=1;whiteSpace=wrap;fillColor=#f5f5f5;strokeColor=#666666;fontColor=#333333;" parent="1" vertex="1">
          <mxGeometry x="286" y="-776.5" width="160" height="61" as="geometry" />
        </mxCell>
        <mxCell id="0FXop1k1lJmk01pZkUKz-30" value="" style="endArrow=open;endSize=12;dashed=1;html=1;rounded=0;exitX=0.5;exitY=1;exitDx=0;exitDy=0;entryX=0.25;entryY=1;entryDx=0;entryDy=0;edgeStyle=orthogonalEdgeStyle;" parent="1" source="0FXop1k1lJmk01pZkUKz-18" target="0FXop1k1lJmk01pZkUKz-29" edge="1">
          <mxGeometry width="160" relative="1" as="geometry">
            <mxPoint x="255" y="-718" as="sourcePoint" />
            <mxPoint x="350" y="-723" as="targetPoint" />
            <mxPoint as="offset" />
            <Array as="points">
              <mxPoint x="-213" y="-643" />
              <mxPoint x="326" y="-643" />
            </Array>
          </mxGeometry>
        </mxCell>
        <mxCell id="0FXop1k1lJmk01pZkUKz-32" value="" style="endArrow=block;endSize=16;endFill=0;html=1;rounded=0;exitX=0.5;exitY=0;exitDx=0;exitDy=0;entryX=0.5;entryY=1;entryDx=0;entryDy=0;edgeStyle=orthogonalEdgeStyle;" parent="1" source="XrivS-1WhvhdIYvPr3YK-95" target="0FXop1k1lJmk01pZkUKz-20" edge="1">
          <mxGeometry width="160" relative="1" as="geometry">
            <mxPoint x="217" y="-808" as="sourcePoint" />
            <mxPoint x="377" y="-808" as="targetPoint" />
            <Array as="points">
              <mxPoint x="-389" y="-843" />
              <mxPoint x="-336" y="-843" />
            </Array>
          </mxGeometry>
        </mxCell>
        <mxCell id="0FXop1k1lJmk01pZkUKz-33" value="" style="endArrow=block;endSize=16;endFill=0;html=1;rounded=0;exitX=0.5;exitY=0;exitDx=0;exitDy=0;entryX=0.5;entryY=1;entryDx=0;entryDy=0;edgeStyle=orthogonalEdgeStyle;" parent="1" source="0FXop1k1lJmk01pZkUKz-29" target="0FXop1k1lJmk01pZkUKz-21" edge="1">
          <mxGeometry width="160" relative="1" as="geometry">
            <mxPoint x="461.47" y="-820" as="sourcePoint" />
            <mxPoint x="461.47" y="-884" as="targetPoint" />
          </mxGeometry>
        </mxCell>
        <mxCell id="0FXop1k1lJmk01pZkUKz-34" value="&lt;p style=&quot;margin:0px;margin-top:4px;text-align:center;&quot;&gt;&lt;b&gt;Ground Water Level&lt;/b&gt;&lt;/p&gt;&lt;hr size=&quot;1&quot;&gt;&lt;p style=&quot;margin:0px;margin-left:4px;&quot;&gt;+ soiltype: str&lt;/p&gt;" style="verticalAlign=top;align=left;overflow=fill;fontSize=12;fontFamily=Helvetica;html=1;whiteSpace=wrap;fillColor=#f5f5f5;strokeColor=#666666;fontColor=#333333;" parent="1" vertex="1">
          <mxGeometry x="465" y="-776.5" width="160" height="61" as="geometry" />
        </mxCell>
        <mxCell id="0FXop1k1lJmk01pZkUKz-40" value="" style="endArrow=block;endSize=16;endFill=0;html=1;rounded=0;exitX=0.5;exitY=0;exitDx=0;exitDy=0;edgeStyle=orthogonalEdgeStyle;entryX=0.5;entryY=1;entryDx=0;entryDy=0;" parent="1" source="0FXop1k1lJmk01pZkUKz-34" target="0FXop1k1lJmk01pZkUKz-21" edge="1">
          <mxGeometry width="160" relative="1" as="geometry">
            <mxPoint x="544.47" y="-776.5" as="sourcePoint" />
            <mxPoint x="536" y="-867" as="targetPoint" />
          </mxGeometry>
        </mxCell>
        <mxCell id="0FXop1k1lJmk01pZkUKz-41" value="&lt;p style=&quot;margin:0px;margin-top:4px;text-align:center;&quot;&gt;&lt;b&gt;3D Key Register&lt;/b&gt;&lt;/p&gt;&lt;hr size=&quot;1&quot;&gt;&lt;p style=&quot;margin:0px;margin-left:4px;&quot;&gt;+ name: str&lt;/p&gt;&lt;hr size=&quot;1&quot;&gt;&lt;p style=&quot;margin:0px;margin-left:4px;&quot;&gt;+ scale: str&lt;/p&gt;" style="verticalAlign=top;align=left;overflow=fill;fontSize=12;fontFamily=Helvetica;html=1;whiteSpace=wrap;fillColor=#f5f5f5;strokeColor=#666666;fontColor=#333333;" parent="1" vertex="1">
          <mxGeometry x="200" y="119" width="160" height="90" as="geometry" />
        </mxCell>
        <mxCell id="0FXop1k1lJmk01pZkUKz-42" value="&lt;p style=&quot;margin:0px;margin-top:4px;text-align:center;text-decoration:underline;&quot;&gt;&lt;b&gt;3D BRO GeoTop&lt;/b&gt;&lt;/p&gt;&lt;hr&gt;&lt;p style=&quot;margin:0px;margin-left:8px;&quot;&gt;name = geotop&lt;/p&gt;" style="verticalAlign=top;align=left;overflow=fill;fontSize=12;fontFamily=Helvetica;html=1;whiteSpace=wrap;" parent="1" vertex="1">
          <mxGeometry x="-72" y="-213" width="160" height="90" as="geometry" />
        </mxCell>
        <mxCell id="0FXop1k1lJmk01pZkUKz-43" value="" style="endArrow=open;endFill=1;endSize=12;html=1;rounded=0;exitX=0.5;exitY=1;exitDx=0;exitDy=0;entryX=0.5;entryY=0;entryDx=0;entryDy=0;edgeStyle=orthogonalEdgeStyle;" parent="1" source="0FXop1k1lJmk01pZkUKz-29" target="0FXop1k1lJmk01pZkUKz-42" edge="1">
          <mxGeometry width="160" relative="1" as="geometry">
            <mxPoint x="169" y="-437" as="sourcePoint" />
            <mxPoint x="329" y="-437" as="targetPoint" />
          </mxGeometry>
        </mxCell>
        <mxCell id="0FXop1k1lJmk01pZkUKz-44" value="" style="endArrow=block;endSize=16;endFill=0;html=1;rounded=0;exitX=0.5;exitY=1;exitDx=0;exitDy=0;entryX=0.5;entryY=0;entryDx=0;entryDy=0;edgeStyle=orthogonalEdgeStyle;" parent="1" source="0FXop1k1lJmk01pZkUKz-42" target="0FXop1k1lJmk01pZkUKz-41" edge="1">
          <mxGeometry width="160" relative="1" as="geometry">
            <mxPoint x="8" y="-17" as="sourcePoint" />
            <mxPoint x="113" y="80" as="targetPoint" />
            <Array as="points">
              <mxPoint x="8" y="39" />
              <mxPoint x="280" y="39" />
            </Array>
          </mxGeometry>
        </mxCell>
        <mxCell id="XrivS-1WhvhdIYvPr3YK-7" value="" style="endArrow=open;endSize=12;dashed=1;html=1;rounded=0;exitX=0.5;exitY=1;exitDx=0;exitDy=0;entryX=0.25;entryY=1;entryDx=0;entryDy=0;edgeStyle=orthogonalEdgeStyle;" edge="1" parent="1" source="0FXop1k1lJmk01pZkUKz-18">
          <mxGeometry width="160" relative="1" as="geometry">
            <mxPoint x="145" y="-712" as="sourcePoint" />
            <mxPoint x="502" y="-715.5" as="targetPoint" />
            <mxPoint as="offset" />
            <Array as="points">
              <mxPoint x="-213" y="-643" />
              <mxPoint x="502" y="-643" />
            </Array>
          </mxGeometry>
        </mxCell>
        <mxCell id="XrivS-1WhvhdIYvPr3YK-8" value="&lt;p style=&quot;margin:0px;margin-top:4px;text-align:center;text-decoration:underline;&quot;&gt;&lt;b&gt;REGIS II&lt;/b&gt;&lt;/p&gt;&lt;hr&gt;&lt;p style=&quot;margin:0px;margin-left:8px;&quot;&gt;name = regisII&lt;/p&gt;" style="verticalAlign=top;align=left;overflow=fill;fontSize=12;fontFamily=Helvetica;html=1;whiteSpace=wrap;" vertex="1" parent="1">
          <mxGeometry x="107" y="-213" width="160" height="90" as="geometry" />
        </mxCell>
        <mxCell id="XrivS-1WhvhdIYvPr3YK-9" value="" style="endArrow=open;endFill=1;endSize=12;html=1;rounded=0;exitX=0.5;exitY=1;exitDx=0;exitDy=0;entryX=0.5;entryY=0;entryDx=0;entryDy=0;edgeStyle=orthogonalEdgeStyle;" edge="1" parent="1" source="0FXop1k1lJmk01pZkUKz-34" target="XrivS-1WhvhdIYvPr3YK-8">
          <mxGeometry width="160" relative="1" as="geometry">
            <mxPoint x="376" y="-554" as="sourcePoint" />
            <mxPoint x="275" y="-444" as="targetPoint" />
            <Array as="points">
              <mxPoint x="545" y="-367" />
              <mxPoint x="187" y="-367" />
            </Array>
          </mxGeometry>
        </mxCell>
        <mxCell id="XrivS-1WhvhdIYvPr3YK-10" value="&lt;p style=&quot;margin:0px;margin-top:4px;text-align:center;&quot;&gt;&lt;b&gt;Slopeness&lt;/b&gt;&lt;/p&gt;&lt;hr size=&quot;1&quot;&gt;&lt;p style=&quot;margin:0px;margin-left:4px;&quot;&gt;+ soiltype: str&lt;/p&gt;" style="verticalAlign=top;align=left;overflow=fill;fontSize=12;fontFamily=Helvetica;html=1;whiteSpace=wrap;fillColor=#f5f5f5;strokeColor=#666666;fontColor=#333333;" vertex="1" parent="1">
          <mxGeometry x="644" y="-776.5" width="160" height="61" as="geometry" />
        </mxCell>
        <mxCell id="XrivS-1WhvhdIYvPr3YK-11" value="" style="endArrow=block;endSize=16;endFill=0;html=1;rounded=0;exitX=0.5;exitY=0;exitDx=0;exitDy=0;edgeStyle=orthogonalEdgeStyle;" edge="1" parent="1" source="XrivS-1WhvhdIYvPr3YK-13" target="0FXop1k1lJmk01pZkUKz-21">
          <mxGeometry width="160" relative="1" as="geometry">
            <mxPoint x="555" y="-766" as="sourcePoint" />
            <mxPoint x="529" y="-867" as="targetPoint" />
          </mxGeometry>
        </mxCell>
        <mxCell id="XrivS-1WhvhdIYvPr3YK-12" value="" style="endArrow=open;endSize=12;dashed=1;html=1;rounded=0;exitX=0.5;exitY=1;exitDx=0;exitDy=0;entryX=0.5;entryY=1;entryDx=0;entryDy=0;edgeStyle=orthogonalEdgeStyle;" edge="1" parent="1" source="0FXop1k1lJmk01pZkUKz-18" target="XrivS-1WhvhdIYvPr3YK-10">
          <mxGeometry width="160" relative="1" as="geometry">
            <mxPoint x="155" y="-702" as="sourcePoint" />
            <mxPoint x="512" y="-705.5" as="targetPoint" />
            <mxPoint as="offset" />
            <Array as="points">
              <mxPoint x="-213" y="-643" />
              <mxPoint x="724" y="-643" />
            </Array>
          </mxGeometry>
        </mxCell>
        <mxCell id="XrivS-1WhvhdIYvPr3YK-13" value="&lt;p style=&quot;margin:0px;margin-top:4px;text-align:center;&quot;&gt;&lt;b&gt;Storage Capacity&lt;/b&gt;&lt;/p&gt;&lt;hr size=&quot;1&quot;&gt;&lt;p style=&quot;margin:0px;margin-left:4px;&quot;&gt;+ soiltype: str&lt;/p&gt;" style="verticalAlign=top;align=left;overflow=fill;fontSize=12;fontFamily=Helvetica;html=1;whiteSpace=wrap;fillColor=#f5f5f5;strokeColor=#666666;fontColor=#333333;" vertex="1" parent="1">
          <mxGeometry x="823" y="-776.5" width="160" height="61" as="geometry" />
        </mxCell>
        <mxCell id="XrivS-1WhvhdIYvPr3YK-14" value="" style="endArrow=block;endSize=16;endFill=0;html=1;rounded=0;exitX=0.5;exitY=0;exitDx=0;exitDy=0;edgeStyle=orthogonalEdgeStyle;entryX=0.5;entryY=1;entryDx=0;entryDy=0;" edge="1" parent="1" source="XrivS-1WhvhdIYvPr3YK-10" target="0FXop1k1lJmk01pZkUKz-21">
          <mxGeometry width="160" relative="1" as="geometry">
            <mxPoint x="734" y="-766" as="sourcePoint" />
            <mxPoint x="472" y="-874" as="targetPoint" />
          </mxGeometry>
        </mxCell>
        <mxCell id="XrivS-1WhvhdIYvPr3YK-17" value="" style="endArrow=block;endSize=16;endFill=0;html=1;rounded=0;exitX=0.5;exitY=1;exitDx=0;exitDy=0;edgeStyle=orthogonalEdgeStyle;entryX=0.5;entryY=0;entryDx=0;entryDy=0;" edge="1" parent="1" source="XrivS-1WhvhdIYvPr3YK-8" target="0FXop1k1lJmk01pZkUKz-41">
          <mxGeometry width="160" relative="1" as="geometry">
            <mxPoint x="187" y="-17" as="sourcePoint" />
            <mxPoint x="238" y="60" as="targetPoint" />
            <Array as="points">
              <mxPoint x="187" y="40" />
              <mxPoint x="279" y="40" />
              <mxPoint x="279" y="119" />
            </Array>
          </mxGeometry>
        </mxCell>
        <mxCell id="XrivS-1WhvhdIYvPr3YK-18" value="&lt;p style=&quot;margin:0px;margin-top:4px;text-align:center;text-decoration:underline;&quot;&gt;&lt;b&gt;Soil Replacement&lt;/b&gt;&lt;/p&gt;&lt;hr&gt;&lt;p style=&quot;margin:0px;margin-left:8px;&quot;&gt;name = soilReplacement&lt;br&gt;&lt;/p&gt;&lt;p style=&quot;margin:0px;margin-left:8px;&quot;&gt;scaleNeighborhood = 1&lt;/p&gt;&lt;p style=&quot;margin:0px;margin-left:8px;&quot;&gt;scaleCity = 0&lt;/p&gt;&lt;p style=&quot;margin:0px;margin-left:8px;&quot;&gt;scaleRegion = 0&lt;/p&gt;&lt;p style=&quot;margin:0px;margin-left:8px;&quot;&gt;adaptation = subsidence&lt;/p&gt;&lt;p style=&quot;margin:0px;margin-left:8px;&quot;&gt;source = klimaateffectatlas&lt;br&gt;&lt;/p&gt;" style="verticalAlign=top;align=left;overflow=fill;fontSize=12;fontFamily=Helvetica;html=1;whiteSpace=wrap;" vertex="1" parent="1">
          <mxGeometry x="-121" y="-814" width="160" height="127" as="geometry" />
        </mxCell>
        <mxCell id="XrivS-1WhvhdIYvPr3YK-19" value="" style="endArrow=block;endSize=16;endFill=0;html=1;rounded=0;exitX=0.5;exitY=0;exitDx=0;exitDy=0;entryX=0.5;entryY=1;entryDx=0;entryDy=0;edgeStyle=orthogonalEdgeStyle;" edge="1" parent="1" source="XrivS-1WhvhdIYvPr3YK-18" target="0FXop1k1lJmk01pZkUKz-20">
          <mxGeometry width="160" relative="1" as="geometry">
            <mxPoint x="-203" y="-804" as="sourcePoint" />
            <mxPoint x="-194" y="-838" as="targetPoint" />
            <Array as="points">
              <mxPoint x="-41" y="-843" />
              <mxPoint x="-336" y="-843" />
            </Array>
          </mxGeometry>
        </mxCell>
        <mxCell id="XrivS-1WhvhdIYvPr3YK-20" value="" style="endArrow=open;endSize=12;dashed=1;html=1;rounded=0;exitX=0.5;exitY=1;exitDx=0;exitDy=0;entryX=0.25;entryY=1;entryDx=0;entryDy=0;edgeStyle=orthogonalEdgeStyle;" edge="1" parent="1" source="XrivS-1WhvhdIYvPr3YK-18" target="0FXop1k1lJmk01pZkUKz-29">
          <mxGeometry width="160" relative="1" as="geometry">
            <mxPoint x="-144" y="-657" as="sourcePoint" />
            <mxPoint x="245" y="-744" as="targetPoint" />
            <Array as="points">
              <mxPoint x="-41" y="-655" />
              <mxPoint x="326" y="-655" />
            </Array>
          </mxGeometry>
        </mxCell>
        <mxCell id="XrivS-1WhvhdIYvPr3YK-24" value="&lt;p style=&quot;margin:0px;margin-top:4px;text-align:center;text-decoration:underline;&quot;&gt;&lt;b&gt;Lightweight Materials&lt;/b&gt;&lt;/p&gt;&lt;hr&gt;&lt;p style=&quot;margin:0px;margin-left:8px;&quot;&gt;name = lightweightMaterials&lt;br&gt;&lt;/p&gt;&lt;p style=&quot;margin:0px;margin-left:8px;&quot;&gt;scaleNeighborhood = 1&lt;/p&gt;&lt;p style=&quot;margin:0px;margin-left:8px;&quot;&gt;scaleCity = 0&lt;/p&gt;&lt;p style=&quot;margin:0px;margin-left:8px;&quot;&gt;scaleRegion = 0&lt;/p&gt;&lt;p style=&quot;margin:0px;margin-left:8px;&quot;&gt;adaptation = subsidence&lt;/p&gt;&lt;p style=&quot;margin:0px;margin-left:8px;&quot;&gt;source = klimaateffectatlas&lt;br&gt;&lt;/p&gt;" style="verticalAlign=top;align=left;overflow=fill;fontSize=12;fontFamily=Helvetica;html=1;whiteSpace=wrap;" vertex="1" parent="1">
          <mxGeometry x="52" y="-814" width="160" height="127" as="geometry" />
        </mxCell>
        <mxCell id="XrivS-1WhvhdIYvPr3YK-27" value="" style="endArrow=block;endSize=16;endFill=0;html=1;rounded=0;exitX=0.5;exitY=0;exitDx=0;exitDy=0;entryX=0.5;entryY=1;entryDx=0;entryDy=0;edgeStyle=orthogonalEdgeStyle;" edge="1" parent="1" source="XrivS-1WhvhdIYvPr3YK-24" target="0FXop1k1lJmk01pZkUKz-20">
          <mxGeometry width="160" relative="1" as="geometry">
            <mxPoint x="-243" y="-806" as="sourcePoint" />
            <mxPoint x="-83" y="-806" as="targetPoint" />
            <Array as="points">
              <mxPoint x="132" y="-843" />
              <mxPoint x="-336" y="-843" />
            </Array>
          </mxGeometry>
        </mxCell>
        <mxCell id="XrivS-1WhvhdIYvPr3YK-28" value="" style="endArrow=open;endSize=12;dashed=1;html=1;rounded=0;exitX=0.5;exitY=1;exitDx=0;exitDy=0;entryX=0.25;entryY=1;entryDx=0;entryDy=0;edgeStyle=orthogonalEdgeStyle;" edge="1" parent="1" source="XrivS-1WhvhdIYvPr3YK-24" target="0FXop1k1lJmk01pZkUKz-29">
          <mxGeometry width="160" relative="1" as="geometry">
            <mxPoint x="250" y="-698" as="sourcePoint" />
            <mxPoint x="410" y="-698" as="targetPoint" />
            <Array as="points">
              <mxPoint x="132" y="-668" />
              <mxPoint x="326" y="-668" />
            </Array>
          </mxGeometry>
        </mxCell>
        <mxCell id="XrivS-1WhvhdIYvPr3YK-60" value="&lt;p style=&quot;margin:0px;margin-top:4px;text-align:center;text-decoration:underline;&quot;&gt;&lt;b&gt;Urban Water Infiltration&lt;/b&gt;&lt;/p&gt;&lt;hr&gt;&lt;p style=&quot;margin:0px;margin-left:8px;&quot;&gt;name = waterInfiltration&lt;br&gt;&lt;/p&gt;&lt;p style=&quot;margin:0px;margin-left:8px;&quot;&gt;scaleNeighborhood = 1&lt;/p&gt;&lt;p style=&quot;margin:0px;margin-left:8px;&quot;&gt;scaleCity = 1&lt;/p&gt;&lt;p style=&quot;margin:0px;margin-left:8px;&quot;&gt;scaleRegion = 0&lt;/p&gt;&lt;p style=&quot;margin:0px;margin-left:8px;&quot;&gt;adaptation = waterlogging&lt;/p&gt;" style="verticalAlign=top;align=left;overflow=fill;fontSize=12;fontFamily=Helvetica;html=1;whiteSpace=wrap;" vertex="1" parent="1">
          <mxGeometry x="2663" y="-1768" width="160" height="109" as="geometry" />
        </mxCell>
        <mxCell id="XrivS-1WhvhdIYvPr3YK-61" value="&lt;p style=&quot;margin:0px;margin-top:4px;text-align:center;&quot;&gt;&lt;b&gt;Design Intervention&lt;/b&gt;&lt;/p&gt;&lt;hr size=&quot;1&quot;&gt;&lt;p style=&quot;margin:0px;margin-left:4px;&quot;&gt;+ name: str&lt;/p&gt;&lt;hr size=&quot;1&quot;&gt;&lt;p style=&quot;margin:0px;margin-left:4px;&quot;&gt;+ scaleNeighborhood: 0..1&lt;/p&gt;&lt;p style=&quot;margin:0px;margin-left:4px;&quot;&gt;+ scaleCity: 0..1&lt;/p&gt;&lt;p style=&quot;margin:0px;margin-left:4px;&quot;&gt;+ scaleRegion: 0..1&lt;/p&gt;&lt;p style=&quot;margin:0px;margin-left:4px;&quot;&gt;+ adaptation: str&lt;/p&gt;" style="verticalAlign=top;align=left;overflow=fill;fontSize=12;fontFamily=Helvetica;html=1;whiteSpace=wrap;fillColor=#f5f5f5;strokeColor=#666666;fontColor=#333333;" vertex="1" parent="1">
          <mxGeometry x="2345" y="-1782" width="160" height="121" as="geometry" />
        </mxCell>
        <mxCell id="XrivS-1WhvhdIYvPr3YK-62" value="&lt;p style=&quot;margin:0px;margin-top:4px;text-align:center;&quot;&gt;&lt;b&gt;Subsurface Properties&lt;/b&gt;&lt;/p&gt;&lt;hr size=&quot;1&quot;&gt;&lt;p style=&quot;margin:0px;margin-left:4px;&quot;&gt;+ name: str&lt;/p&gt;" style="verticalAlign=top;align=left;overflow=fill;fontSize=12;fontFamily=Helvetica;html=1;whiteSpace=wrap;fillColor=#f5f5f5;strokeColor=#666666;fontColor=#333333;" vertex="1" parent="1">
          <mxGeometry x="2981" y="-1705" width="160" height="61" as="geometry" />
        </mxCell>
        <mxCell id="XrivS-1WhvhdIYvPr3YK-63" value="&lt;p style=&quot;margin:0px;margin-top:4px;text-align:center;&quot;&gt;&lt;b&gt;Soil Type&lt;/b&gt;&lt;/p&gt;&lt;hr size=&quot;1&quot;&gt;&lt;p style=&quot;margin:0px;margin-left:4px;&quot;&gt;+ soiltype: str&lt;/p&gt;" style="verticalAlign=top;align=left;overflow=fill;fontSize=12;fontFamily=Helvetica;html=1;whiteSpace=wrap;fillColor=#f5f5f5;strokeColor=#666666;fontColor=#333333;" vertex="1" parent="1">
          <mxGeometry x="2981" y="-1624" width="160" height="61" as="geometry" />
        </mxCell>
        <mxCell id="XrivS-1WhvhdIYvPr3YK-69" value="&lt;p style=&quot;margin:0px;margin-top:4px;text-align:center;&quot;&gt;&lt;b&gt;3D Key Register&lt;/b&gt;&lt;/p&gt;&lt;hr size=&quot;1&quot;&gt;&lt;p style=&quot;margin:0px;margin-left:4px;&quot;&gt;+ name: str&lt;/p&gt;&lt;hr size=&quot;1&quot;&gt;&lt;p style=&quot;margin:0px;margin-left:4px;&quot;&gt;+ scale: str&lt;/p&gt;" style="verticalAlign=top;align=left;overflow=fill;fontSize=12;fontFamily=Helvetica;html=1;whiteSpace=wrap;fillColor=#f5f5f5;strokeColor=#666666;fontColor=#333333;" vertex="1" parent="1">
          <mxGeometry x="3565" y="-1770" width="160" height="90" as="geometry" />
        </mxCell>
        <mxCell id="XrivS-1WhvhdIYvPr3YK-70" value="&lt;p style=&quot;margin:0px;margin-top:4px;text-align:center;text-decoration:underline;&quot;&gt;&lt;b&gt;3D BRO GeoTop&lt;/b&gt;&lt;/p&gt;&lt;hr&gt;&lt;p style=&quot;margin:0px;margin-left:8px;&quot;&gt;name = GeoTop&lt;br&gt;&lt;/p&gt;&lt;p style=&quot;margin:0px;margin-left:8px;&quot;&gt;scale = city&lt;/p&gt;" style="verticalAlign=top;align=left;overflow=fill;fontSize=12;fontFamily=Helvetica;html=1;whiteSpace=wrap;" vertex="1" parent="1">
          <mxGeometry x="3273" y="-1789" width="160" height="90" as="geometry" />
        </mxCell>
        <mxCell id="XrivS-1WhvhdIYvPr3YK-74" value="&lt;p style=&quot;margin:0px;margin-top:4px;text-align:center;text-decoration:underline;&quot;&gt;&lt;b&gt;3D BRO Ground Water&lt;/b&gt;&lt;/p&gt;&lt;hr&gt;&lt;p style=&quot;margin:0px;margin-left:8px;&quot;&gt;name = GeoTop&lt;br&gt;&lt;/p&gt;&lt;p style=&quot;margin:0px;margin-left:8px;&quot;&gt;scale = city&lt;/p&gt;" style="verticalAlign=top;align=left;overflow=fill;fontSize=12;fontFamily=Helvetica;html=1;whiteSpace=wrap;" vertex="1" parent="1">
          <mxGeometry x="3273" y="-1927" width="160" height="90" as="geometry" />
        </mxCell>
        <mxCell id="XrivS-1WhvhdIYvPr3YK-76" value="&lt;p style=&quot;margin:0px;margin-top:4px;text-align:center;&quot;&gt;&lt;b&gt;Slopeness&lt;/b&gt;&lt;/p&gt;&lt;hr size=&quot;1&quot;&gt;&lt;p style=&quot;margin:0px;margin-left:4px;&quot;&gt;+ soiltype: str&lt;/p&gt;" style="verticalAlign=top;align=left;overflow=fill;fontSize=12;fontFamily=Helvetica;html=1;whiteSpace=wrap;fillColor=#f5f5f5;strokeColor=#666666;fontColor=#333333;" vertex="1" parent="1">
          <mxGeometry x="2978" y="-1543" width="160" height="61" as="geometry" />
        </mxCell>
        <mxCell id="XrivS-1WhvhdIYvPr3YK-84" value="&lt;p style=&quot;margin:0px;margin-top:4px;text-align:center;text-decoration:underline;&quot;&gt;&lt;b&gt;Freshwater Storage&lt;/b&gt;&lt;/p&gt;&lt;hr&gt;&lt;p style=&quot;margin:0px;margin-left:8px;&quot;&gt;name = freshwaterSupply&lt;br&gt;&lt;/p&gt;&lt;p style=&quot;margin:0px;margin-left:8px;&quot;&gt;scaleNeighborhood = 1&lt;/p&gt;&lt;p style=&quot;margin:0px;margin-left:8px;&quot;&gt;scaleCity = 1&lt;/p&gt;&lt;p style=&quot;margin:0px;margin-left:8px;&quot;&gt;scaleRegion = 1&lt;/p&gt;&lt;p style=&quot;margin:0px;margin-left:8px;&quot;&gt;adaptation = drought&lt;/p&gt;" style="verticalAlign=top;align=left;overflow=fill;fontSize=12;fontFamily=Helvetica;html=1;whiteSpace=wrap;" vertex="1" parent="1">
          <mxGeometry x="2661" y="-1905" width="160" height="109" as="geometry" />
        </mxCell>
        <mxCell id="XrivS-1WhvhdIYvPr3YK-87" value="&lt;p style=&quot;margin:0px;margin-top:4px;text-align:center;text-decoration:underline;&quot;&gt;&lt;b&gt;Lightweight Materials&lt;/b&gt;&lt;/p&gt;&lt;hr&gt;&lt;p style=&quot;margin:0px;margin-left:8px;&quot;&gt;name = lightweightMaterials&lt;br&gt;&lt;/p&gt;&lt;p style=&quot;margin:0px;margin-left:8px;&quot;&gt;scaleNeighborhood = 1&lt;/p&gt;&lt;p style=&quot;margin:0px;margin-left:8px;&quot;&gt;scaleCity = 0&lt;/p&gt;&lt;p style=&quot;margin:0px;margin-left:8px;&quot;&gt;scaleRegion = 0&lt;/p&gt;&lt;p style=&quot;margin:0px;margin-left:8px;&quot;&gt;adaptation = subsidence&lt;/p&gt;" style="verticalAlign=top;align=left;overflow=fill;fontSize=12;fontFamily=Helvetica;html=1;whiteSpace=wrap;" vertex="1" parent="1">
          <mxGeometry x="2663" y="-1631" width="160" height="109" as="geometry" />
        </mxCell>
        <mxCell id="XrivS-1WhvhdIYvPr3YK-67" value="&lt;p style=&quot;margin:0px;margin-top:4px;text-align:center;&quot;&gt;&lt;b&gt;Ground Water Level&lt;/b&gt;&lt;/p&gt;&lt;hr size=&quot;1&quot;&gt;&lt;p style=&quot;margin:0px;margin-left:4px;&quot;&gt;+ soiltype: str&lt;/p&gt;" style="verticalAlign=top;align=left;overflow=fill;fontSize=12;fontFamily=Helvetica;html=1;whiteSpace=wrap;fillColor=#f5f5f5;strokeColor=#666666;fontColor=#333333;" vertex="1" parent="1">
          <mxGeometry x="2978" y="-1789" width="160" height="61" as="geometry" />
        </mxCell>
        <mxCell id="XrivS-1WhvhdIYvPr3YK-79" value="&lt;p style=&quot;margin:0px;margin-top:4px;text-align:center;&quot;&gt;&lt;b&gt;Storage Capacity&lt;/b&gt;&lt;/p&gt;&lt;hr size=&quot;1&quot;&gt;&lt;p style=&quot;margin:0px;margin-left:4px;&quot;&gt;+ soiltype: str&lt;/p&gt;" style="verticalAlign=top;align=left;overflow=fill;fontSize=12;fontFamily=Helvetica;html=1;whiteSpace=wrap;fillColor=#f5f5f5;strokeColor=#666666;fontColor=#333333;" vertex="1" parent="1">
          <mxGeometry x="2978" y="-1873.5" width="160" height="61" as="geometry" />
        </mxCell>
        <mxCell id="XrivS-1WhvhdIYvPr3YK-94" value="&lt;p style=&quot;margin:0px;margin-top:4px;text-align:center;text-decoration:underline;&quot;&gt;&lt;b&gt;Soil Replacement&lt;/b&gt;&lt;/p&gt;&lt;hr&gt;&lt;p style=&quot;margin:0px;margin-left:8px;&quot;&gt;name = soilReplacement&lt;br&gt;&lt;/p&gt;&lt;p style=&quot;margin:0px;margin-left:8px;&quot;&gt;scaleNeighborhood = 1&lt;/p&gt;&lt;p style=&quot;margin:0px;margin-left:8px;&quot;&gt;scaleCity = 0&lt;/p&gt;&lt;p style=&quot;margin:0px;margin-left:8px;&quot;&gt;scaleRegion = 0&lt;/p&gt;&lt;p style=&quot;margin:0px;margin-left:8px;&quot;&gt;adaptation = subsidence&lt;/p&gt;" style="verticalAlign=top;align=left;overflow=fill;fontSize=12;fontFamily=Helvetica;html=1;whiteSpace=wrap;" vertex="1" parent="1">
          <mxGeometry x="2661" y="-1494" width="160" height="109" as="geometry" />
        </mxCell>
        <mxCell id="XrivS-1WhvhdIYvPr3YK-95" value="&lt;p style=&quot;border-color: var(--border-color); text-decoration-line: underline; margin: 4px 0px 0px; text-align: center;&quot;&gt;&lt;b style=&quot;border-color: var(--border-color);&quot;&gt;Freshwater Storage&lt;/b&gt;&lt;/p&gt;&lt;hr style=&quot;border-color: var(--border-color);&quot;&gt;&lt;p style=&quot;border-color: var(--border-color); margin: 0px 0px 0px 8px;&quot;&gt;name = freshwaterStorage&lt;br style=&quot;border-color: var(--border-color);&quot;&gt;&lt;/p&gt;&lt;p style=&quot;border-color: var(--border-color); margin: 0px 0px 0px 8px;&quot;&gt;scaleNeighborhood = 1&lt;/p&gt;&lt;p style=&quot;border-color: var(--border-color); margin: 0px 0px 0px 8px;&quot;&gt;scaleCity = 1&lt;/p&gt;&lt;p style=&quot;border-color: var(--border-color); margin: 0px 0px 0px 8px;&quot;&gt;scaleRegion = 1&lt;/p&gt;&lt;p style=&quot;border-color: var(--border-color); margin: 0px 0px 0px 8px;&quot;&gt;adaptation = drought&lt;/p&gt;&lt;p style=&quot;border-color: var(--border-color); margin: 0px 0px 0px 8px;&quot;&gt;source = klimaateffectatlas&lt;br&gt;&lt;/p&gt;" style="verticalAlign=top;align=left;overflow=fill;fontSize=12;fontFamily=Helvetica;html=1;whiteSpace=wrap;" vertex="1" parent="1">
          <mxGeometry x="-469" y="-814" width="160" height="126" as="geometry" />
        </mxCell>
        <mxCell id="XrivS-1WhvhdIYvPr3YK-96" value="&lt;p style=&quot;margin:0px;margin-top:4px;text-align:center;text-decoration:underline;&quot;&gt;&lt;b style=&quot;border-color: var(--border-color);&quot;&gt;Natural Buffer&lt;/b&gt;&lt;br&gt;&lt;/p&gt;&lt;hr&gt;&lt;p style=&quot;margin:0px;margin-left:8px;&quot;&gt;name = naturalBuffer&lt;br&gt;&lt;/p&gt;&lt;p style=&quot;margin:0px;margin-left:8px;&quot;&gt;scaleNeighborhood = 0&lt;/p&gt;&lt;p style=&quot;margin:0px;margin-left:8px;&quot;&gt;scaleCity = 1&lt;/p&gt;&lt;p style=&quot;margin:0px;margin-left:8px;&quot;&gt;scaleRegion = 1&lt;/p&gt;&lt;p style=&quot;margin:0px;margin-left:8px;&quot;&gt;adaptation = waterlogging&lt;/p&gt;&lt;p style=&quot;margin:0px;margin-left:8px;&quot;&gt;source = klimaateffectatlas&lt;br&gt;&lt;/p&gt;" style="verticalAlign=top;align=left;overflow=fill;fontSize=12;fontFamily=Helvetica;html=1;whiteSpace=wrap;" vertex="1" parent="1">
          <mxGeometry x="-645" y="-814" width="160" height="125" as="geometry" />
        </mxCell>
        <mxCell id="XrivS-1WhvhdIYvPr3YK-97" value="&lt;p style=&quot;margin:0px;margin-top:4px;text-align:center;text-decoration:underline;&quot;&gt;&lt;b&gt;Water Bodies&lt;/b&gt;&lt;/p&gt;&lt;hr&gt;&lt;p style=&quot;margin:0px;margin-left:8px;&quot;&gt;name = waterBodies&lt;br&gt;&lt;/p&gt;&lt;p style=&quot;margin:0px;margin-left:8px;&quot;&gt;scaleNeighborhood = 1&lt;/p&gt;&lt;p style=&quot;margin:0px;margin-left:8px;&quot;&gt;scaleCity = 1&lt;/p&gt;&lt;p style=&quot;margin:0px;margin-left:8px;&quot;&gt;scaleRegion = 0&lt;/p&gt;&lt;p style=&quot;margin:0px;margin-left:8px;&quot;&gt;adaptation = heat&lt;/p&gt;&lt;p style=&quot;margin:0px;margin-left:8px;&quot;&gt;source =&amp;nbsp;klimaateffectatlas&lt;/p&gt;" style="verticalAlign=top;align=left;overflow=fill;fontSize=12;fontFamily=Helvetica;html=1;whiteSpace=wrap;" vertex="1" parent="1">
          <mxGeometry x="-821" y="-814" width="160" height="125" as="geometry" />
        </mxCell>
        <mxCell id="XrivS-1WhvhdIYvPr3YK-99" value="" style="endArrow=open;endSize=12;dashed=1;html=1;rounded=0;exitX=0.5;exitY=1;exitDx=0;exitDy=0;entryX=0.25;entryY=1;entryDx=0;entryDy=0;edgeStyle=orthogonalEdgeStyle;" edge="1" parent="1" source="XrivS-1WhvhdIYvPr3YK-95" target="0FXop1k1lJmk01pZkUKz-29">
          <mxGeometry width="160" relative="1" as="geometry">
            <mxPoint x="-377" y="-611" as="sourcePoint" />
            <mxPoint x="-217" y="-611" as="targetPoint" />
            <Array as="points">
              <mxPoint x="-389" y="-630" />
              <mxPoint x="326" y="-630" />
            </Array>
          </mxGeometry>
        </mxCell>
        <mxCell id="XrivS-1WhvhdIYvPr3YK-103" value="" style="endArrow=open;endSize=12;dashed=1;html=1;rounded=0;exitX=0.5;exitY=1;exitDx=0;exitDy=0;entryX=0.5;entryY=1;entryDx=0;entryDy=0;edgeStyle=orthogonalEdgeStyle;" edge="1" parent="1" source="XrivS-1WhvhdIYvPr3YK-95" target="XrivS-1WhvhdIYvPr3YK-13">
          <mxGeometry width="160" relative="1" as="geometry">
            <mxPoint x="-230" y="-545" as="sourcePoint" />
            <mxPoint x="768" y="-642" as="targetPoint" />
            <Array as="points">
              <mxPoint x="-389" y="-630" />
              <mxPoint x="903" y="-630" />
            </Array>
          </mxGeometry>
        </mxCell>
        <mxCell id="XrivS-1WhvhdIYvPr3YK-104" value="&lt;p style=&quot;margin:0px;margin-top:4px;text-align:center;text-decoration:underline;&quot;&gt;&lt;b&gt;Xeriscaping&lt;/b&gt;&lt;/p&gt;&lt;hr&gt;&lt;p style=&quot;margin:0px;margin-left:8px;&quot;&gt;name = xeriscaping&lt;br&gt;&lt;/p&gt;&lt;p style=&quot;margin:0px;margin-left:8px;&quot;&gt;scaleNeighborhood = 1&lt;/p&gt;&lt;p style=&quot;margin:0px;margin-left:8px;&quot;&gt;scaleCity = 1&lt;/p&gt;&lt;p style=&quot;margin:0px;margin-left:8px;&quot;&gt;scaleRegion = 0&lt;/p&gt;&lt;p style=&quot;margin:0px;margin-left:8px;&quot;&gt;adaptation = drought&lt;/p&gt;&lt;p style=&quot;margin:0px;margin-left:8px;&quot;&gt;source =&amp;nbsp;klimaateffectatlas&lt;/p&gt;" style="verticalAlign=top;align=left;overflow=fill;fontSize=12;fontFamily=Helvetica;html=1;whiteSpace=wrap;" vertex="1" parent="1">
          <mxGeometry x="-998" y="-814" width="161" height="125" as="geometry" />
        </mxCell>
        <mxCell id="XrivS-1WhvhdIYvPr3YK-106" value="" style="endArrow=open;endSize=12;dashed=1;html=1;rounded=0;exitX=0.5;exitY=1;exitDx=0;exitDy=0;entryX=0.75;entryY=1;entryDx=0;entryDy=0;edgeStyle=orthogonalEdgeStyle;" edge="1" parent="1" source="XrivS-1WhvhdIYvPr3YK-104" target="0FXop1k1lJmk01pZkUKz-29">
          <mxGeometry width="160" relative="1" as="geometry">
            <mxPoint x="-887" y="-584" as="sourcePoint" />
            <mxPoint x="-302" y="-588" as="targetPoint" />
            <Array as="points">
              <mxPoint x="-925" y="-601" />
              <mxPoint x="406" y="-601" />
            </Array>
          </mxGeometry>
        </mxCell>
        <mxCell id="XrivS-1WhvhdIYvPr3YK-107" value="" style="endArrow=open;endSize=12;dashed=1;html=1;rounded=0;exitX=0.5;exitY=1;exitDx=0;exitDy=0;entryX=0.75;entryY=1;entryDx=0;entryDy=0;edgeStyle=orthogonalEdgeStyle;" edge="1" parent="1" source="XrivS-1WhvhdIYvPr3YK-104" target="0FXop1k1lJmk01pZkUKz-34">
          <mxGeometry width="160" relative="1" as="geometry">
            <mxPoint x="-741" y="-671" as="sourcePoint" />
            <mxPoint x="590" y="-698" as="targetPoint" />
            <Array as="points">
              <mxPoint x="-925" y="-601" />
              <mxPoint x="585" y="-601" />
            </Array>
          </mxGeometry>
        </mxCell>
        <mxCell id="XrivS-1WhvhdIYvPr3YK-108" value="&lt;p style=&quot;margin:0px;margin-top:4px;text-align:center;text-decoration:underline;&quot;&gt;&lt;b style=&quot;border-color: var(--border-color);&quot;&gt;Green Surfaces&lt;/b&gt;&lt;/p&gt;&lt;hr&gt;&lt;p style=&quot;margin:0px;margin-left:8px;&quot;&gt;name = greenSurfaces&lt;br&gt;&lt;/p&gt;&lt;p style=&quot;margin:0px;margin-left:8px;&quot;&gt;scaleNeighborhood = 1&lt;/p&gt;&lt;p style=&quot;margin:0px;margin-left:8px;&quot;&gt;scaleCity = 0&lt;/p&gt;&lt;p style=&quot;margin:0px;margin-left:8px;&quot;&gt;scaleRegion = 0&lt;/p&gt;&lt;p style=&quot;margin:0px;margin-left:8px;&quot;&gt;adaptation = heat&lt;/p&gt;&lt;p style=&quot;margin:0px;margin-left:8px;&quot;&gt;source =&amp;nbsp;klimaateffectatlas&lt;/p&gt;" style="verticalAlign=top;align=left;overflow=fill;fontSize=12;fontFamily=Helvetica;html=1;whiteSpace=wrap;" vertex="1" parent="1">
          <mxGeometry x="-1174" y="-813" width="160" height="125" as="geometry" />
        </mxCell>
        <mxCell id="XrivS-1WhvhdIYvPr3YK-109" value="&lt;p style=&quot;margin:0px;margin-top:4px;text-align:center;text-decoration:underline;&quot;&gt;&lt;b&gt;Natural Shading&lt;/b&gt;&lt;/p&gt;&lt;hr&gt;&lt;p style=&quot;margin:0px;margin-left:8px;&quot;&gt;name = naturalShading&lt;br&gt;&lt;/p&gt;&lt;p style=&quot;margin:0px;margin-left:8px;&quot;&gt;scaleNeighborhood = 1&lt;/p&gt;&lt;p style=&quot;margin:0px;margin-left:8px;&quot;&gt;scaleCity = 0&lt;/p&gt;&lt;p style=&quot;margin:0px;margin-left:8px;&quot;&gt;scaleRegion = 0&lt;/p&gt;&lt;p style=&quot;margin:0px;margin-left:8px;&quot;&gt;adaptation = heat&lt;/p&gt;&lt;p style=&quot;margin:0px;margin-left:8px;&quot;&gt;source =&amp;nbsp;klimaateffectatlas&lt;/p&gt;" style="verticalAlign=top;align=left;overflow=fill;fontSize=12;fontFamily=Helvetica;html=1;whiteSpace=wrap;" vertex="1" parent="1">
          <mxGeometry x="-1350" y="-814" width="160" height="125" as="geometry" />
        </mxCell>
        <mxCell id="XrivS-1WhvhdIYvPr3YK-110" value="" style="endArrow=open;endSize=12;dashed=1;html=1;rounded=0;exitX=0.5;exitY=1;exitDx=0;exitDy=0;entryX=0.75;entryY=1;entryDx=0;entryDy=0;edgeStyle=orthogonalEdgeStyle;" edge="1" parent="1" source="XrivS-1WhvhdIYvPr3YK-109" target="XrivS-1WhvhdIYvPr3YK-13">
          <mxGeometry width="160" relative="1" as="geometry">
            <mxPoint x="-1217" y="-582" as="sourcePoint" />
            <mxPoint x="309" y="-534" as="targetPoint" />
            <Array as="points">
              <mxPoint x="-1270" y="-584" />
              <mxPoint x="943" y="-584" />
            </Array>
          </mxGeometry>
        </mxCell>
        <mxCell id="XrivS-1WhvhdIYvPr3YK-111" value="" style="endArrow=open;endSize=12;dashed=1;html=1;rounded=0;exitX=0.5;exitY=1;exitDx=0;exitDy=0;entryX=0.25;entryY=1;entryDx=0;entryDy=0;edgeStyle=orthogonalEdgeStyle;" edge="1" parent="1" source="XrivS-1WhvhdIYvPr3YK-97" target="XrivS-1WhvhdIYvPr3YK-13">
          <mxGeometry width="160" relative="1" as="geometry">
            <mxPoint x="-749" y="-649" as="sourcePoint" />
            <mxPoint x="81" y="-548" as="targetPoint" />
            <Array as="points">
              <mxPoint x="-741" y="-614" />
              <mxPoint x="863" y="-614" />
            </Array>
          </mxGeometry>
        </mxCell>
        <mxCell id="XrivS-1WhvhdIYvPr3YK-113" value="" style="endArrow=open;endSize=12;dashed=1;html=1;rounded=0;exitX=0.5;exitY=1;exitDx=0;exitDy=0;entryX=0.75;entryY=1;entryDx=0;entryDy=0;edgeStyle=orthogonalEdgeStyle;" edge="1" parent="1" source="XrivS-1WhvhdIYvPr3YK-96" target="0FXop1k1lJmk01pZkUKz-29">
          <mxGeometry width="160" relative="1" as="geometry">
            <mxPoint x="-557" y="-642" as="sourcePoint" />
            <mxPoint x="-220" y="-563" as="targetPoint" />
            <Array as="points">
              <mxPoint x="-565" y="-570" />
              <mxPoint x="406" y="-570" />
            </Array>
          </mxGeometry>
        </mxCell>
        <mxCell id="XrivS-1WhvhdIYvPr3YK-114" value="" style="endArrow=block;endSize=16;endFill=0;html=1;rounded=0;entryX=0.5;entryY=1;entryDx=0;entryDy=0;exitX=0.5;exitY=0;exitDx=0;exitDy=0;edgeStyle=orthogonalEdgeStyle;" edge="1" parent="1" source="XrivS-1WhvhdIYvPr3YK-96" target="0FXop1k1lJmk01pZkUKz-20">
          <mxGeometry x="1" y="186" width="160" relative="1" as="geometry">
            <mxPoint x="-933" y="-908" as="sourcePoint" />
            <mxPoint x="-534" y="-917" as="targetPoint" />
            <Array as="points">
              <mxPoint x="-565" y="-843" />
              <mxPoint x="-336" y="-843" />
            </Array>
            <mxPoint x="186" y="178" as="offset" />
          </mxGeometry>
        </mxCell>
        <mxCell id="XrivS-1WhvhdIYvPr3YK-115" value="" style="endArrow=block;endSize=16;endFill=0;html=1;rounded=0;exitX=0.5;exitY=0;exitDx=0;exitDy=0;entryX=0.5;entryY=1;entryDx=0;entryDy=0;edgeStyle=orthogonalEdgeStyle;" edge="1" parent="1" source="XrivS-1WhvhdIYvPr3YK-108" target="0FXop1k1lJmk01pZkUKz-20">
          <mxGeometry width="160" relative="1" as="geometry">
            <mxPoint x="-1070" y="-949" as="sourcePoint" />
            <mxPoint x="-369" y="-862" as="targetPoint" />
            <Array as="points">
              <mxPoint x="-1094" y="-843" />
              <mxPoint x="-336" y="-843" />
            </Array>
          </mxGeometry>
        </mxCell>
        <mxCell id="XrivS-1WhvhdIYvPr3YK-116" value="" style="endArrow=block;endSize=16;endFill=0;html=1;rounded=0;exitX=0.5;exitY=0;exitDx=0;exitDy=0;entryX=0.5;entryY=1;entryDx=0;entryDy=0;edgeStyle=orthogonalEdgeStyle;" edge="1" parent="1" source="XrivS-1WhvhdIYvPr3YK-104" target="0FXop1k1lJmk01pZkUKz-20">
          <mxGeometry width="160" relative="1" as="geometry">
            <mxPoint x="-1041" y="-954" as="sourcePoint" />
            <mxPoint x="-881" y="-954" as="targetPoint" />
            <Array as="points">
              <mxPoint x="-917" y="-843" />
              <mxPoint x="-336" y="-843" />
            </Array>
          </mxGeometry>
        </mxCell>
        <mxCell id="XrivS-1WhvhdIYvPr3YK-117" value="" style="endArrow=block;endSize=16;endFill=0;html=1;rounded=0;exitX=0.5;exitY=0;exitDx=0;exitDy=0;entryX=0.5;entryY=1;entryDx=0;entryDy=0;edgeStyle=orthogonalEdgeStyle;" edge="1" parent="1" source="XrivS-1WhvhdIYvPr3YK-97" target="0FXop1k1lJmk01pZkUKz-20">
          <mxGeometry width="160" relative="1" as="geometry">
            <mxPoint x="-743" y="-901" as="sourcePoint" />
            <mxPoint x="-410" y="-850" as="targetPoint" />
            <Array as="points">
              <mxPoint x="-741" y="-843" />
              <mxPoint x="-336" y="-843" />
            </Array>
          </mxGeometry>
        </mxCell>
        <mxCell id="XrivS-1WhvhdIYvPr3YK-118" value="" style="endArrow=block;endSize=16;endFill=0;html=1;rounded=0;exitX=0.5;exitY=0;exitDx=0;exitDy=0;entryX=0.5;entryY=1;entryDx=0;entryDy=0;edgeStyle=orthogonalEdgeStyle;" edge="1" parent="1" source="XrivS-1WhvhdIYvPr3YK-109" target="0FXop1k1lJmk01pZkUKz-20">
          <mxGeometry x="1" y="220" width="160" relative="1" as="geometry">
            <mxPoint x="-1259" y="-1007" as="sourcePoint" />
            <mxPoint x="-381" y="-874" as="targetPoint" />
            <Array as="points">
              <mxPoint x="-1270" y="-843" />
              <mxPoint x="-336" y="-843" />
            </Array>
            <mxPoint x="194" y="116" as="offset" />
          </mxGeometry>
        </mxCell>
        <mxCell id="XrivS-1WhvhdIYvPr3YK-121" value="&lt;p style=&quot;margin:0px;margin-top:4px;text-align:center;text-decoration:underline;&quot;&gt;&lt;b&gt;Ground Water&amp;nbsp;&lt;/b&gt;&lt;/p&gt;&lt;hr&gt;&lt;p style=&quot;margin:0px;margin-left:8px;&quot;&gt;name = groundWater&lt;/p&gt;" style="verticalAlign=top;align=left;overflow=fill;fontSize=12;fontFamily=Helvetica;html=1;whiteSpace=wrap;" vertex="1" parent="1">
          <mxGeometry x="286" y="-216" width="160" height="90" as="geometry" />
        </mxCell>
        <mxCell id="XrivS-1WhvhdIYvPr3YK-123" value="" style="endArrow=open;endFill=1;endSize=12;html=1;rounded=0;entryX=0.5;entryY=0;entryDx=0;entryDy=0;exitX=0.5;exitY=1;exitDx=0;exitDy=0;edgeStyle=orthogonalEdgeStyle;" edge="1" parent="1" source="XrivS-1WhvhdIYvPr3YK-154" target="XrivS-1WhvhdIYvPr3YK-124">
          <mxGeometry width="160" relative="1" as="geometry">
            <mxPoint x="594" y="-224" as="sourcePoint" />
            <mxPoint x="754" y="-224" as="targetPoint" />
            <Array as="points">
              <mxPoint x="1082" y="-333" />
              <mxPoint x="545" y="-333" />
            </Array>
          </mxGeometry>
        </mxCell>
        <mxCell id="XrivS-1WhvhdIYvPr3YK-124" value="&lt;p style=&quot;margin:0px;margin-top:4px;text-align:center;text-decoration:underline;&quot;&gt;&lt;b&gt;Geotechnical CPT&lt;/b&gt;&lt;/p&gt;&lt;hr&gt;&lt;p style=&quot;margin:0px;margin-left:8px;&quot;&gt;name = geotechnicalcpt&lt;/p&gt;" style="verticalAlign=top;align=left;overflow=fill;fontSize=12;fontFamily=Helvetica;html=1;whiteSpace=wrap;" vertex="1" parent="1">
          <mxGeometry x="465" y="-216" width="160" height="90" as="geometry" />
        </mxCell>
        <mxCell id="XrivS-1WhvhdIYvPr3YK-125" value="" style="endArrow=block;endSize=16;endFill=0;html=1;rounded=0;exitX=0.5;exitY=1;exitDx=0;exitDy=0;entryX=0.5;entryY=0;entryDx=0;entryDy=0;edgeStyle=orthogonalEdgeStyle;" edge="1" parent="1" source="XrivS-1WhvhdIYvPr3YK-121" target="0FXop1k1lJmk01pZkUKz-41">
          <mxGeometry width="160" relative="1" as="geometry">
            <mxPoint x="366" y="-20" as="sourcePoint" />
            <mxPoint x="624" y="253" as="targetPoint" />
            <Array as="points">
              <mxPoint x="366" y="39" />
              <mxPoint x="280" y="39" />
            </Array>
          </mxGeometry>
        </mxCell>
        <mxCell id="XrivS-1WhvhdIYvPr3YK-127" value="" style="endArrow=block;endSize=16;endFill=0;html=1;rounded=0;exitX=0.5;exitY=1;exitDx=0;exitDy=0;entryX=0.5;entryY=0;entryDx=0;entryDy=0;edgeStyle=orthogonalEdgeStyle;" edge="1" parent="1" source="XrivS-1WhvhdIYvPr3YK-124" target="0FXop1k1lJmk01pZkUKz-41">
          <mxGeometry width="160" relative="1" as="geometry">
            <mxPoint x="545" y="-20" as="sourcePoint" />
            <mxPoint x="821" y="151" as="targetPoint" />
            <Array as="points">
              <mxPoint x="545" y="40" />
              <mxPoint x="280" y="40" />
            </Array>
          </mxGeometry>
        </mxCell>
        <mxCell id="XrivS-1WhvhdIYvPr3YK-128" value="" style="endArrow=open;endFill=1;endSize=12;html=1;rounded=0;entryX=0.5;entryY=0;entryDx=0;entryDy=0;exitX=0.5;exitY=1;exitDx=0;exitDy=0;edgeStyle=orthogonalEdgeStyle;" edge="1" parent="1" source="0FXop1k1lJmk01pZkUKz-34" target="XrivS-1WhvhdIYvPr3YK-121">
          <mxGeometry width="160" relative="1" as="geometry">
            <mxPoint x="132" y="-299" as="sourcePoint" />
            <mxPoint x="292" y="-299" as="targetPoint" />
            <Array as="points">
              <mxPoint x="545" y="-349" />
              <mxPoint x="366" y="-349" />
            </Array>
          </mxGeometry>
        </mxCell>
        <mxCell id="XrivS-1WhvhdIYvPr3YK-131" value="&lt;p style=&quot;margin:0px;margin-top:4px;text-align:center;&quot;&gt;&lt;b&gt;Standards&lt;/b&gt;&lt;/p&gt;&lt;hr size=&quot;1&quot;&gt;&lt;p style=&quot;margin:0px;margin-left:4px;&quot;&gt;+ type: str&lt;/p&gt;&lt;hr size=&quot;1&quot;&gt;&lt;p style=&quot;margin:0px;margin-left:4px;&quot;&gt;+ name: str&lt;/p&gt;&lt;p style=&quot;margin:0px;margin-left:4px;&quot;&gt;+ organization: str&lt;/p&gt;" style="verticalAlign=top;align=left;overflow=fill;fontSize=12;fontFamily=Helvetica;html=1;whiteSpace=wrap;fillColor=#f5f5f5;strokeColor=#666666;fontColor=#333333;" vertex="1" parent="1">
          <mxGeometry x="-805" y="212" width="160" height="90" as="geometry" />
        </mxCell>
        <mxCell id="XrivS-1WhvhdIYvPr3YK-132" value="&lt;p style=&quot;margin:0px;margin-top:4px;text-align:center;text-decoration:underline;&quot;&gt;&lt;b&gt;I3S&lt;/b&gt;&lt;/p&gt;&lt;hr&gt;&lt;p style=&quot;margin:0px;margin-left:8px;&quot;&gt;type = dataSt&lt;/p&gt;&lt;p style=&quot;margin:0px;margin-left:8px;&quot;&gt;name = 3Dtiles&lt;/p&gt;&lt;p style=&quot;margin:0px;margin-left:8px;&quot;&gt;organization = OGC&lt;/p&gt;" style="verticalAlign=top;align=left;overflow=fill;fontSize=12;fontFamily=Helvetica;html=1;whiteSpace=wrap;" vertex="1" parent="1">
          <mxGeometry x="-561" y="103" width="160" height="90" as="geometry" />
        </mxCell>
        <mxCell id="XrivS-1WhvhdIYvPr3YK-133" value="&lt;p style=&quot;margin:0px;margin-top:4px;text-align:center;text-decoration:underline;&quot;&gt;&lt;b&gt;3D Tiles&lt;/b&gt;&lt;/p&gt;&lt;hr&gt;&lt;p style=&quot;margin:0px;margin-left:8px;&quot;&gt;type = dataSt&lt;/p&gt;&lt;p style=&quot;margin:0px;margin-left:8px;&quot;&gt;name = 3Dtiles&lt;/p&gt;&lt;p style=&quot;margin:0px;margin-left:8px;&quot;&gt;organization = OGC&lt;br&gt;&lt;/p&gt;" style="verticalAlign=top;align=left;overflow=fill;fontSize=12;fontFamily=Helvetica;html=1;whiteSpace=wrap;" vertex="1" parent="1">
          <mxGeometry x="-561" y="212" width="160" height="90" as="geometry" />
        </mxCell>
        <mxCell id="XrivS-1WhvhdIYvPr3YK-135" value="&lt;p style=&quot;margin:0px;margin-top:4px;text-align:center;text-decoration:underline;&quot;&gt;&lt;b&gt;CityGML&lt;/b&gt;&lt;/p&gt;&lt;hr&gt;&lt;p style=&quot;margin:0px;margin-left:8px;&quot;&gt;type = dataSt&lt;/p&gt;&lt;p style=&quot;margin:0px;margin-left:8px;&quot;&gt;name = 3Dtiles&lt;/p&gt;&lt;p style=&quot;margin:0px;margin-left:8px;&quot;&gt;organization = OGC&lt;br&gt;&lt;/p&gt;" style="verticalAlign=top;align=left;overflow=fill;fontSize=12;fontFamily=Helvetica;html=1;whiteSpace=wrap;" vertex="1" parent="1">
          <mxGeometry x="-561" y="321" width="160" height="90" as="geometry" />
        </mxCell>
        <mxCell id="XrivS-1WhvhdIYvPr3YK-139" value="" style="endArrow=block;endSize=16;endFill=0;html=1;rounded=0;exitX=0;exitY=0.5;exitDx=0;exitDy=0;entryX=1;entryY=0.5;entryDx=0;entryDy=0;edgeStyle=orthogonalEdgeStyle;" edge="1" parent="1" source="XrivS-1WhvhdIYvPr3YK-132" target="XrivS-1WhvhdIYvPr3YK-131">
          <mxGeometry width="160" relative="1" as="geometry">
            <mxPoint x="-750" y="343" as="sourcePoint" />
            <mxPoint x="-590" y="343" as="targetPoint" />
          </mxGeometry>
        </mxCell>
        <mxCell id="XrivS-1WhvhdIYvPr3YK-140" value="" style="endArrow=block;endSize=16;endFill=0;html=1;rounded=0;exitX=0;exitY=0.5;exitDx=0;exitDy=0;entryX=1;entryY=0.5;entryDx=0;entryDy=0;" edge="1" parent="1" source="XrivS-1WhvhdIYvPr3YK-133" target="XrivS-1WhvhdIYvPr3YK-131">
          <mxGeometry width="160" relative="1" as="geometry">
            <mxPoint x="-802" y="385" as="sourcePoint" />
            <mxPoint x="-642" y="385" as="targetPoint" />
          </mxGeometry>
        </mxCell>
        <mxCell id="XrivS-1WhvhdIYvPr3YK-141" value="" style="endArrow=block;endSize=16;endFill=0;html=1;rounded=0;exitX=0;exitY=0.5;exitDx=0;exitDy=0;entryX=1;entryY=0.5;entryDx=0;entryDy=0;edgeStyle=orthogonalEdgeStyle;" edge="1" parent="1" source="XrivS-1WhvhdIYvPr3YK-135" target="XrivS-1WhvhdIYvPr3YK-131">
          <mxGeometry width="160" relative="1" as="geometry">
            <mxPoint x="-815" y="424" as="sourcePoint" />
            <mxPoint x="-655" y="424" as="targetPoint" />
            <Array as="points">
              <mxPoint x="-602" y="366" />
              <mxPoint x="-602" y="257" />
            </Array>
          </mxGeometry>
        </mxCell>
        <mxCell id="XrivS-1WhvhdIYvPr3YK-142" value="" style="endArrow=open;endFill=1;endSize=12;html=1;rounded=0;exitX=1;exitY=0.5;exitDx=0;exitDy=0;entryX=0;entryY=0.5;entryDx=0;entryDy=0;edgeStyle=orthogonalEdgeStyle;" edge="1" parent="1" source="XrivS-1WhvhdIYvPr3YK-132" target="0FXop1k1lJmk01pZkUKz-41">
          <mxGeometry width="160" relative="1" as="geometry">
            <mxPoint x="-257" y="211" as="sourcePoint" />
            <mxPoint x="-97" y="211" as="targetPoint" />
          </mxGeometry>
        </mxCell>
        <mxCell id="XrivS-1WhvhdIYvPr3YK-143" value="" style="endArrow=open;endFill=1;endSize=12;html=1;rounded=0;exitX=1;exitY=0.5;exitDx=0;exitDy=0;entryX=0;entryY=0.5;entryDx=0;entryDy=0;edgeStyle=orthogonalEdgeStyle;" edge="1" parent="1" source="XrivS-1WhvhdIYvPr3YK-133" target="0FXop1k1lJmk01pZkUKz-41">
          <mxGeometry width="160" relative="1" as="geometry">
            <mxPoint x="-284" y="220" as="sourcePoint" />
            <mxPoint x="-124" y="220" as="targetPoint" />
          </mxGeometry>
        </mxCell>
        <mxCell id="XrivS-1WhvhdIYvPr3YK-145" value="&lt;p style=&quot;margin:0px;margin-top:4px;text-align:center;text-decoration:underline;&quot;&gt;&lt;b&gt;Leidraad 2.0&lt;/b&gt;&lt;/p&gt;&lt;hr&gt;&lt;p style=&quot;margin:0px;margin-left:8px;&quot;&gt;type = designSt&lt;/p&gt;&lt;p style=&quot;margin:0px;margin-left:8px;&quot;&gt;name = leidraad2&lt;/p&gt;&lt;p style=&quot;margin:0px;margin-left:8px;&quot;&gt;organization =&lt;/p&gt;" style="verticalAlign=top;align=left;overflow=fill;fontSize=12;fontFamily=Helvetica;html=1;whiteSpace=wrap;" vertex="1" parent="1">
          <mxGeometry x="-1039" y="-105" width="160" height="90" as="geometry" />
        </mxCell>
        <mxCell id="XrivS-1WhvhdIYvPr3YK-146" value="&lt;p style=&quot;margin:0px;margin-top:4px;text-align:center;text-decoration:underline;&quot;&gt;&lt;b&gt;CityJSON&lt;/b&gt;&lt;/p&gt;&lt;hr&gt;&lt;p style=&quot;margin:0px;margin-left:8px;&quot;&gt;type = OGC&lt;/p&gt;&lt;p style=&quot;margin:0px;margin-left:8px;&quot;&gt;&lt;span style=&quot;background-color: initial;&quot;&gt;name = cityjson&lt;/span&gt;&lt;/p&gt;&lt;p style=&quot;margin:0px;margin-left:8px;&quot;&gt;organization = OGC&lt;span style=&quot;background-color: initial;&quot;&gt;&lt;br&gt;&lt;/span&gt;&lt;/p&gt;" style="verticalAlign=top;align=left;overflow=fill;fontSize=12;fontFamily=Helvetica;html=1;whiteSpace=wrap;" vertex="1" parent="1">
          <mxGeometry x="-561" y="430" width="160" height="90" as="geometry" />
        </mxCell>
        <mxCell id="XrivS-1WhvhdIYvPr3YK-147" value="" style="endArrow=block;endSize=16;endFill=0;html=1;rounded=0;entryX=1;entryY=0.5;entryDx=0;entryDy=0;exitX=0;exitY=0.5;exitDx=0;exitDy=0;edgeStyle=orthogonalEdgeStyle;" edge="1" parent="1" source="XrivS-1WhvhdIYvPr3YK-146" target="XrivS-1WhvhdIYvPr3YK-131">
          <mxGeometry width="160" relative="1" as="geometry">
            <mxPoint x="-820" y="519" as="sourcePoint" />
            <mxPoint x="-660" y="519" as="targetPoint" />
            <Array as="points">
              <mxPoint x="-602" y="475" />
              <mxPoint x="-602" y="257" />
            </Array>
          </mxGeometry>
        </mxCell>
        <mxCell id="XrivS-1WhvhdIYvPr3YK-149" value="&lt;p style=&quot;margin:0px;margin-top:4px;text-align:center;text-decoration:underline;&quot;&gt;&lt;b&gt;REALCOOL&lt;/b&gt;&lt;/p&gt;&lt;hr&gt;&lt;p style=&quot;margin:0px;margin-left:8px;&quot;&gt;type = designSt&lt;/p&gt;&lt;p style=&quot;margin:0px;margin-left:8px;&quot;&gt;name = realcool&lt;/p&gt;&lt;p style=&quot;margin:0px;margin-left:8px;&quot;&gt;organization = climatelier&lt;/p&gt;" style="verticalAlign=top;align=left;overflow=fill;fontSize=12;fontFamily=Helvetica;html=1;whiteSpace=wrap;" vertex="1" parent="1">
          <mxGeometry x="-862" y="-105" width="160" height="90" as="geometry" />
        </mxCell>
        <mxCell id="XrivS-1WhvhdIYvPr3YK-152" value="" style="endArrow=block;endSize=16;endFill=0;html=1;rounded=0;entryX=0.5;entryY=0;entryDx=0;entryDy=0;exitX=0.5;exitY=1;exitDx=0;exitDy=0;edgeStyle=orthogonalEdgeStyle;" edge="1" parent="1" source="XrivS-1WhvhdIYvPr3YK-149" target="XrivS-1WhvhdIYvPr3YK-131">
          <mxGeometry width="160" relative="1" as="geometry">
            <mxPoint x="-1118" y="140" as="sourcePoint" />
            <mxPoint x="-958" y="140" as="targetPoint" />
          </mxGeometry>
        </mxCell>
        <mxCell id="XrivS-1WhvhdIYvPr3YK-153" value="" style="endArrow=block;endSize=16;endFill=0;html=1;rounded=0;exitX=0.5;exitY=1;exitDx=0;exitDy=0;entryX=0.5;entryY=0;entryDx=0;entryDy=0;edgeStyle=orthogonalEdgeStyle;" edge="1" parent="1" source="XrivS-1WhvhdIYvPr3YK-145" target="XrivS-1WhvhdIYvPr3YK-131">
          <mxGeometry width="160" relative="1" as="geometry">
            <mxPoint x="-1127" y="178" as="sourcePoint" />
            <mxPoint x="-967" y="178" as="targetPoint" />
          </mxGeometry>
        </mxCell>
        <mxCell id="XrivS-1WhvhdIYvPr3YK-154" value="&lt;p style=&quot;margin:0px;margin-top:4px;text-align:center;&quot;&gt;&lt;b&gt;Geomechanics&lt;/b&gt;&lt;/p&gt;&lt;hr size=&quot;1&quot;&gt;&lt;p style=&quot;margin:0px;margin-left:4px;&quot;&gt;+ soiltype: str&lt;/p&gt;" style="verticalAlign=top;align=left;overflow=fill;fontSize=12;fontFamily=Helvetica;html=1;whiteSpace=wrap;fillColor=#f5f5f5;strokeColor=#666666;fontColor=#333333;" vertex="1" parent="1">
          <mxGeometry x="1002" y="-776.5" width="160" height="61" as="geometry" />
        </mxCell>
        <mxCell id="XrivS-1WhvhdIYvPr3YK-155" value="&lt;p style=&quot;margin:0px;margin-top:4px;text-align:center;text-decoration:underline;&quot;&gt;&lt;b&gt;Groundwater Use (2D)&lt;/b&gt;&lt;/p&gt;&lt;hr&gt;&lt;p style=&quot;margin:0px;margin-left:8px;&quot;&gt;name = geotechnicalcpt&lt;/p&gt;" style="verticalAlign=top;align=left;overflow=fill;fontSize=12;fontFamily=Helvetica;html=1;whiteSpace=wrap;" vertex="1" parent="1">
          <mxGeometry x="644" y="-220" width="160" height="90" as="geometry" />
        </mxCell>
        <mxCell id="XrivS-1WhvhdIYvPr3YK-158" value="&lt;p style=&quot;margin:0px;margin-top:4px;text-align:center;text-decoration:underline;&quot;&gt;&lt;b&gt;Key Register&lt;/b&gt;&lt;/p&gt;&lt;hr&gt;&lt;p style=&quot;margin:0px;margin-left:8px;&quot;&gt;name = geotechnicalcpt&lt;/p&gt;" style="verticalAlign=top;align=left;overflow=fill;fontSize=12;fontFamily=Helvetica;html=1;whiteSpace=wrap;" vertex="1" parent="1">
          <mxGeometry x="347" y="281" width="160" height="90" as="geometry" />
        </mxCell>
        <mxCell id="XrivS-1WhvhdIYvPr3YK-161" value="&lt;p style=&quot;margin:0px;margin-top:4px;text-align:center;text-decoration:underline;&quot;&gt;&lt;b&gt;D1&lt;/b&gt;&lt;/p&gt;&lt;hr&gt;&lt;p style=&quot;margin:0px;margin-left:8px;&quot;&gt;&lt;span style=&quot;background-color: initial;&quot;&gt;name = D1&lt;/span&gt;&lt;/p&gt;&lt;p style=&quot;margin:0px;margin-left:8px;&quot;&gt;&lt;span style=&quot;background-color: initial;&quot;&gt;area = Utrecht&lt;/span&gt;&lt;/p&gt;&lt;p style=&quot;margin:0px;margin-left:8px;&quot;&gt;adaptation = drought&lt;/p&gt;&lt;p style=&quot;margin:0px;margin-left:8px;&quot;&gt;properties = fresh water availablity, soil type, groundwater levels&lt;/p&gt;&lt;p style=&quot;margin:0px;margin-left:8px;&quot;&gt;&lt;span style=&quot;background-color: initial;&quot;&gt;&lt;br&gt;&lt;/span&gt;&lt;/p&gt;" style="verticalAlign=top;align=left;overflow=fill;fontSize=12;fontFamily=Helvetica;html=1;whiteSpace=wrap;" vertex="1" parent="1">
          <mxGeometry x="-1373.5" y="-439" width="207" height="123" as="geometry" />
        </mxCell>
        <mxCell id="XrivS-1WhvhdIYvPr3YK-162" value="&lt;p style=&quot;margin:0px;margin-top:4px;text-align:center;&quot;&gt;&lt;b&gt;Climate Themes&lt;/b&gt;&lt;/p&gt;&lt;hr size=&quot;1&quot;&gt;&lt;p style=&quot;margin:0px;margin-left:4px;&quot;&gt;&lt;br&gt;&lt;/p&gt;&lt;p style=&quot;margin:0px;margin-left:4px;&quot;&gt;+ name: str&lt;/p&gt;" style="verticalAlign=top;align=left;overflow=fill;fontSize=12;fontFamily=Helvetica;html=1;whiteSpace=wrap;fillColor=#f5f5f5;strokeColor=#666666;fontColor=#333333;" vertex="1" parent="1">
          <mxGeometry x="-2099" y="-222" width="160" height="90" as="geometry" />
        </mxCell>
        <mxCell id="XrivS-1WhvhdIYvPr3YK-163" value="&lt;p style=&quot;margin:0px;margin-top:4px;text-align:center;text-decoration:underline;&quot;&gt;&lt;b&gt;Heat&lt;/b&gt;&lt;/p&gt;&lt;hr&gt;&lt;p style=&quot;margin:0px;margin-left:8px;&quot;&gt;&lt;span style=&quot;background-color: initial;&quot;&gt;name = Heat&lt;/span&gt;&lt;/p&gt;&lt;p style=&quot;margin:0px;margin-left:8px;&quot;&gt;&lt;span style=&quot;background-color: initial;&quot;&gt;&lt;br&gt;&lt;/span&gt;&lt;/p&gt;" style="verticalAlign=top;align=left;overflow=fill;fontSize=12;fontFamily=Helvetica;html=1;whiteSpace=wrap;" vertex="1" parent="1">
          <mxGeometry x="-1813" y="-285" width="160" height="90" as="geometry" />
        </mxCell>
        <mxCell id="XrivS-1WhvhdIYvPr3YK-167" value="&lt;p style=&quot;margin:0px;margin-top:4px;text-align:center;text-decoration:underline;&quot;&gt;&lt;b&gt;Drought&lt;/b&gt;&lt;/p&gt;&lt;hr&gt;&lt;p style=&quot;margin:0px;margin-left:8px;&quot;&gt;&lt;span style=&quot;background-color: initial;&quot;&gt;name = Drought&lt;/span&gt;&lt;/p&gt;&lt;p style=&quot;margin:0px;margin-left:8px;&quot;&gt;&lt;span style=&quot;background-color: initial;&quot;&gt;&lt;br&gt;&lt;/span&gt;&lt;/p&gt;" style="verticalAlign=top;align=left;overflow=fill;fontSize=12;fontFamily=Helvetica;html=1;whiteSpace=wrap;" vertex="1" parent="1">
          <mxGeometry x="-1813" y="-400" width="160" height="90" as="geometry" />
        </mxCell>
        <mxCell id="XrivS-1WhvhdIYvPr3YK-169" value="&lt;p style=&quot;margin:0px;margin-top:4px;text-align:center;text-decoration:underline;&quot;&gt;&lt;b&gt;Waterlogging&lt;/b&gt;&lt;/p&gt;&lt;hr&gt;&lt;p style=&quot;margin:0px;margin-left:8px;&quot;&gt;&lt;span style=&quot;background-color: initial;&quot;&gt;name = Waterlogging&lt;/span&gt;&lt;/p&gt;&lt;p style=&quot;margin:0px;margin-left:8px;&quot;&gt;&lt;span style=&quot;background-color: initial;&quot;&gt;&lt;br&gt;&lt;/span&gt;&lt;/p&gt;" style="verticalAlign=top;align=left;overflow=fill;fontSize=12;fontFamily=Helvetica;html=1;whiteSpace=wrap;" vertex="1" parent="1">
          <mxGeometry x="-1813" y="-515" width="160" height="90" as="geometry" />
        </mxCell>
        <mxCell id="XrivS-1WhvhdIYvPr3YK-170" value="&lt;p style=&quot;margin:0px;margin-top:4px;text-align:center;text-decoration:underline;&quot;&gt;&lt;b&gt;Biodiversity&lt;/b&gt;&lt;/p&gt;&lt;hr&gt;&lt;p style=&quot;margin:0px;margin-left:8px;&quot;&gt;&lt;span style=&quot;background-color: initial;&quot;&gt;name = Biodiversity&lt;/span&gt;&lt;/p&gt;&lt;p style=&quot;margin:0px;margin-left:8px;&quot;&gt;&lt;span style=&quot;background-color: initial;&quot;&gt;&lt;br&gt;&lt;/span&gt;&lt;/p&gt;" style="verticalAlign=top;align=left;overflow=fill;fontSize=12;fontFamily=Helvetica;html=1;whiteSpace=wrap;" vertex="1" parent="1">
          <mxGeometry x="-1813" y="-55" width="160" height="90" as="geometry" />
        </mxCell>
        <mxCell id="XrivS-1WhvhdIYvPr3YK-171" value="&lt;p style=&quot;margin:0px;margin-top:4px;text-align:center;text-decoration:underline;&quot;&gt;&lt;b&gt;Subsidence&lt;/b&gt;&lt;/p&gt;&lt;hr&gt;&lt;p style=&quot;margin:0px;margin-left:8px;&quot;&gt;&lt;span style=&quot;background-color: initial;&quot;&gt;name = Subsidence&lt;/span&gt;&lt;/p&gt;&lt;p style=&quot;margin:0px;margin-left:8px;&quot;&gt;&lt;span style=&quot;background-color: initial;&quot;&gt;&lt;br&gt;&lt;/span&gt;&lt;/p&gt;" style="verticalAlign=top;align=left;overflow=fill;fontSize=12;fontFamily=Helvetica;html=1;whiteSpace=wrap;" vertex="1" parent="1">
          <mxGeometry x="-1813" y="-170" width="160" height="90" as="geometry" />
        </mxCell>
        <mxCell id="XrivS-1WhvhdIYvPr3YK-172" value="&lt;p style=&quot;margin:0px;margin-top:4px;text-align:center;text-decoration:underline;&quot;&gt;&lt;b&gt;Flooding&lt;/b&gt;&lt;/p&gt;&lt;hr&gt;&lt;p style=&quot;margin:0px;margin-left:8px;&quot;&gt;&lt;span style=&quot;background-color: initial;&quot;&gt;name = Flooding&lt;/span&gt;&lt;/p&gt;&lt;p style=&quot;margin:0px;margin-left:8px;&quot;&gt;&lt;span style=&quot;background-color: initial;&quot;&gt;&lt;br&gt;&lt;/span&gt;&lt;/p&gt;" style="verticalAlign=top;align=left;overflow=fill;fontSize=12;fontFamily=Helvetica;html=1;whiteSpace=wrap;" vertex="1" parent="1">
          <mxGeometry x="-1813" y="60" width="160" height="90" as="geometry" />
        </mxCell>
      </root>
    </mxGraphModel>
  </diagram>
</mxfile>
